<?xml version="1.0" standalone="no"?>
<!DOCTYPE svg PUBLIC "-//W3C//DTD SVG 20010904//EN"
 "http://www.w3.org/TR/2001/REC-SVG-20010904/DTD/svg10.dtd">
<svg version="1.0" xmlns="http://www.w3.org/2000/svg"
 width="768.000000pt" height="768.000000pt" viewBox="0 0 768.000000 768.000000"
 preserveAspectRatio="xMidYMid meet">
<metadata>
Created by potrace 1.14, written by Peter Selinger 2001-2017
</metadata>
<g transform="translate(0.000000,768.000000) scale(0.100000,-0.100000)"
fill="#000000" stroke="none">
<path d="M3609 7676 c-2 -2 -42 -6 -89 -10 -124 -10 -198 -19 -360 -47 -231
-39 -593 -144 -775 -223 -16 -8 -59 -26 -95 -42 -114 -49 -372 -184 -432 -225
-14 -11 -28 -19 -31 -19 -15 0 -368 -249 -397 -280 -3 -3 -18 -16 -35 -29 -87
-66 -268 -240 -399 -381 -64 -70 -230 -273 -269 -330 -163 -238 -260 -402
-355 -600 -59 -125 -162 -378 -162 -399 0 -6 -4 -19 -9 -29 -20 -35 -104 -341
-126 -457 -8 -44 -43 -263 -49 -310 -21 -159 -29 -614 -13 -770 3 -38 9 -97
13 -130 6 -63 27 -198 49 -320 48 -258 177 -636 310 -910 77 -160 233 -430
292 -505 6 -8 52 -69 102 -135 49 -66 101 -133 116 -150 108 -123 140 -159
221 -239 107 -107 167 -163 249 -231 33 -28 62 -53 65 -56 9 -11 234 -174 294
-213 293 -193 623 -351 950 -455 126 -40 345 -97 415 -107 20 -3 43 -7 51 -9
8 -3 33 -7 55 -10 22 -3 49 -7 60 -10 18 -4 75 -12 145 -20 213 -27 663 -27
880 0 185 23 339 51 495 91 673 169 1276 510 1769 1000 92 91 223 235 282 309
21 28 41 52 44 55 13 12 113 152 164 230 30 47 59 90 64 95 21 26 158 277 207
380 89 186 207 501 240 639 38 156 74 321 79 357 3 24 10 69 16 99 9 54 13 84
28 245 15 168 8 592 -14 769 -14 114 -23 171 -45 286 -92 472 -266 904 -537
1335 -32 49 -62 97 -69 105 -6 8 -52 69 -102 135 -49 66 -101 134 -116 150
-101 116 -141 159 -221 239 -445 446 -968 767 -1558 955 -126 40 -345 97 -415
107 -20 3 -43 7 -51 9 -8 2 -28 6 -45 9 -73 11 -121 19 -140 22 -10 2 -49 6
-85 10 -36 3 -78 8 -95 11 -34 5 -561 13 -566 9z"/>
</g>
</svg>
